<svg xmlns="http://www.w3.org/2000/svg" width="1240" height="1240"><path d="M534.864 22.501C421.571 39.398 320.823 84.729 232.769 158.427c-16.155 13.521-43.641 40.256-58.676 57.073-76.948 86.069-126.568 188.99-146.083 303-6.683 39.046-7.453 49.482-7.453 101 0 51.525.773 61.993 7.456 101 14.644 85.458 45.686 163.684 93.141 234.715 33.747 50.513 75.348 96.178 121.785 133.684 76.244 61.582 162.897 102.334 258.561 121.6 44.936 9.049 44.298 9.001 118.5 9.001h65.5l17.75-2.761c43.68-6.796 85.465-17.23 119.495-29.84 82.39-30.529 152.78-74.573 213.139-133.363 102.117-99.465 163.766-225.631 180.131-368.645 15.593-136.274-18.974-280.781-94.685-395.825-35.386-53.768-77.154-100.103-125.269-138.965C911.278 81.622 811.888 38.243 703.735 22.515c-17.118-2.49-17.697-2.506-85.235-2.427-65.872.078-68.489.154-83.636 2.413M342.106 285.372c-.632.762-4.138 1.668-7.879 2.037-3.708.365-7.863 1.307-9.234 2.094-1.371.786-4.293 2.297-6.493 3.358-7.957 3.836-21.781 17.655-25.649 25.639-1.066 2.2-2.571 5.139-3.344 6.531-.774 1.393-1.706 5.668-2.073 9.5-.386 4.035-1.253 7.44-2.06 8.086-1.163.933-1.351 9.038-1.134 49l.26 47.883h700l.259-52.278c.227-45.844.073-52.349-1.25-52.857-.83-.318-1.509-1.491-1.509-2.606 0-3.125-2.267-10.176-3.524-10.96-.618-.386-1.725-2.523-2.46-4.75-.735-2.227-1.931-4.049-2.657-4.049s-1.609-1.146-1.96-2.547c-.352-1.4-.874-2.312-1.161-2.025-.286.287-2.228-1.238-4.315-3.388s-4.948-4.666-6.359-5.59c-1.41-.924-2.564-2.222-2.564-2.884 0-.663-2.25-1.817-5-2.566-2.75-.749-5-1.909-5-2.578 0-1.189-9.924-3.422-15.209-3.422-1.401 0-3.106-.675-3.791-1.5-1.101-1.327-34.882-1.5-293-1.5-246.064 0-291.933.215-292.894 1.372m-57.438 182.293c-.367.368-.668 103.813-.668 229.879 0 202.523.175 229.356 1.5 230.456.825.685 1.5 2.39 1.5 3.791 0 5.285 2.233 15.209 3.422 15.209.669 0 1.829 2.25 2.578 5 .749 2.75 1.903 5 2.566 5 .662 0 1.96 1.154 2.884 2.564.924 1.411 3.44 4.272 5.59 6.359 2.15 2.087 3.675 4.029 3.388 4.315-.287.287.625.809 2.025 1.161 1.401.351 2.547 1.256 2.547 2.01 0 .761 2.002 1.961 4.5 2.699 2.475.731 4.5 1.812 4.5 2.403 0 1.093 7.49 3.489 10.907 3.489 1.034 0 2.138.676 2.455 1.502.511 1.331 25.508 1.474 219.357 1.25L772.5 984.5l.5-98.917c.394-77.887.766-99.005 1.75-99.333.688-.229 1.25-1.435 1.25-2.68 0-2.207 2.672-8.572 4.018-9.57.371-.275.95-1.625 1.287-3 .776-3.169 14.4-17.454 17.621-18.476 1.331-.423 3.321-1.608 4.422-2.634 1.101-1.026 3.611-2.161 5.577-2.522 1.966-.361 3.856-1.089 4.199-1.617.343-.529 3.606-1.2 7.25-1.493 3.644-.292 6.626-.92 6.626-1.395 0-.477 35.356-.863 79.004-.863h79.003l-.253-137.25-.254-137.25-349.582-.251c-192.27-.139-349.882.049-350.25.416m492.274 13.575c-3.857 2.262-17.192 14.968-43.564 41.51L695.372 561H530v27h68.5c37.675 0 68.499.337 68.499.75-.001.413-20.84 21.581-46.31 47.042l-46.308 46.291-8.67-.291-8.67-.292-45.02-44.952L467 591.595v-61.616l-43.75.26-43.75.261-.26 44.25-.261 44.25 16.761.012 16.76.011-13.75 13.623c-7.562 7.492-13.75 14.007-13.75 14.477 0 1.414-3.353 4.877-4.722 4.877-1.018 0-1.278 8.957-1.278 44v44l32.25.01 32.25.009 43.129 43.241c23.721 23.782 43.301 44.14 43.51 45.24.211 1.108 1.321 2.135 2.488 2.302 1.159.166 4.817 3.137 8.13 6.601 3.312 3.464 6.635 6.595 7.383 6.956.748.362 2.883 1.579 4.745 2.705 1.862 1.125 3.985 1.816 4.718 1.535.733-.281 1.599-.081 1.924.445.325.526 3.013.956 5.973.956s5.648-.43 5.973-.956c.325-.526 1.239-.708 2.031-.404 1.578.605 7.496-1.671 7.496-2.884 0-.416.575-.756 1.277-.756s4.399-3.146 8.215-6.992l6.938-6.992 56.035-.258 56.035-.258.278-13.75.278-13.75h-84.548l46.46-46.468 46.461-46.469 10.535-.281 10.536-.282.282-10.545.282-10.545 50.275-50.239 50.276-50.24 24.942.285 24.943.284v-27.498l-13.071-.001-13.07-.001.441-8.404c.715-13.637-.439-15.379-29.696-44.846-13.516-13.613-25.002-24.75-25.525-24.75-.523 0-2.021-1.006-3.331-2.236-2.11-1.983-3.592-2.268-13.064-2.51-10.478-.269-10.791-.211-16.242 2.986m-370.716 93.51l.274 16.75 16.75.274 16.75.274V558h-34.048l.274 16.75M406 707.319c0 5.318.785 5.988 6.445 5.498l3.655-.317-5.05-4.962-5.05-4.963v4.744M828 770c0 .55-1.5 1-3.333 1-1.834 0-3.671.337-4.084.75-.412.413-1.143.75-1.624.75-1.079 0-8.817 6.308-10.919 8.9a79.007 79.007 0 01-3.184 3.645c-.905.959-1.956 3.589-2.337 5.844-.381 2.255-1.104 4.354-1.606 4.665-1.178.728-1.224 188.136-.046 188.864.477.295 2.839-1.797 5.25-4.648 4.564-5.399 14.574-16.533 18.57-20.656 1.272-1.313 2.313-3 2.313-3.75s.624-1.364 1.386-1.364c.762 0 2.134-1.575 3.047-3.5.913-1.925 2.315-3.5 3.114-3.5.799 0 1.453-.566 1.453-1.258 0-1.049 8.195-10.623 17.75-20.737 1.237-1.31 2.25-2.972 2.25-3.694 0-.721.624-1.311 1.386-1.311.762 0 2.134-1.575 3.047-3.5.913-1.925 2.315-3.5 3.114-3.5.799 0 1.453-.47 1.453-1.045s1.079-2.125 2.398-3.444c1.318-1.318 2.556-2.814 2.75-3.324.193-.509 3.36-4.247 7.036-8.307 11.4-12.587 12.809-14.283 13.389-16.108.309-.975 1.206-1.772 1.994-1.772s1.433-.353 1.433-.785c0-.905 3.946-5.862 9-11.306 4.907-5.286 9.001-10.007 12.5-14.416 1.65-2.079 4.505-5.403 6.344-7.387 1.839-1.983 4.539-5.181 6-7.105 1.461-1.925 4.006-4.911 5.656-6.636 5.25-5.488 9.5-10.64 9.5-11.516 0-.467.675-.849 1.5-.849s1.5-.62 1.5-1.378c0-1.29 3.846-5.877 15.25-18.187 2.612-2.821 4.75-5.647 4.75-6.282 0-.634.446-1.153.991-1.153.545 0 2.007-1.569 3.25-3.488 1.242-1.918 2.822-3.493 3.509-3.5.688-.006 1.25-.693 1.25-1.525s2.283-3.784 5.073-6.56c4.137-4.114 4.852-5.312 3.878-6.487-1.022-1.231-12.435-1.44-78.573-1.44-50.919 0-77.378.342-77.378 1m-449 47v44h88v-88h-88v44m27.181-1.105c.175 8.769.693 16.318 1.15 16.774.458.457 8.006.983 16.775 1.169l15.943.339-.274-16.839-.275-16.838-16.819-.274-16.819-.275.319 15.944" fill="undefined" fill-rule="evenodd"/></svg>